STARTFONT 2.1
COMMENT This font was automatically resized by bdfresize-1.5
COMMENT   mag_x = 8/12, mag_y = 32/30, blackness = 4
COMMENT This font was taken from the dosemu project, resized by 
COMMENT bdfresize and finally corrected and sharpened by hand.
COMMENT 
COMMENT This font gives you the maximum window size possible 
COMMENT inside of a 1024x768 pix display without breaking the
COMMENT screen borders. 
COMMENT 
COMMENT Having a closer look to the font, you will find that
COMMENT narrow characters are not always placed in the same
COMMENT positions of their cells. You will also see that some
COMMENT characters like "o" are made less wide. These are not
COMMENT mistakes. It was all done for the purpose of improving
COMMENT the appearance of entire words and sentences.
COMMENT 
COMMENT You may change this if you like, but should mention it
COMMENT here (inside of the font comments).
COMMENT 
COMMENT Have a look to the other fonts of this series as well.
COMMENT Written in December 2002 by Martin Reuber, OFD Kiel,
COMMENT German Fiscal Administration.
COMMENT 
COMMENT Update 002 in May 2003:
COMMENT The style of the characters b and d was changed.
COMMENT 
COMMENT Update 003 in January 2004:
COMMENT Small corrections in font name, properties and comments.
FONT -dosemu-vga-Medium-R-Normal--32-320-75-75-C-80-IBM-CP437
SIZE 32 75 75
FONTBOUNDINGBOX 8 32 0 -9
STARTPROPERTIES 22
POINT_SIZE 320
RESOLUTION_X 75
RESOLUTION_Y 75
QUAD_WIDTH 8
DEFAULT_CHAR 0
FONT_ASCENT 24
FONT_DESCENT 9
_ORIGINAL_FONT_NAME "vga"
_XMBDFED_INFO "Edited with xmbdfed 4.5."
FOUNDRY "dosemu"
FAMILY_NAME "vga"
WEIGHT_NAME "Medium"
SLANT "R"
SETWIDTH_NAME "Normal"
ADD_STYLE_NAME "1024x768pix_screen_max_size"
PIXEL_SIZE 32
SPACING "C"
AVERAGE_WIDTH 80
CHARSET_REGISTRY "IBM"
CHARSET_ENCODING "CP437"
RESOLUTION 100
WEIGHT 10
ENDPROPERTIES
CHARS 256
STARTCHAR 000
ENCODING 0
SWIDTH 256 0
DWIDTH 8 0
BBX 0 0 0 0
BITMAP
ENDCHAR
STARTCHAR 001
ENCODING 1
SWIDTH 256 0
DWIDTH 8 0
BBX 8 21 0 0
BITMAP
FF
FF
C3
E7
FF
FF
E7
C3
C3
FF
FF
FF
FF
FF
FF
FF
DB
C3
C3
FF
FF
ENDCHAR
STARTCHAR 002
ENCODING 2
SWIDTH 256 0
DWIDTH 8 0
BBX 8 21 0 0
BITMAP
FF
FF
FF
FF
DB
FF
FF
FF
FF
FF
FF
FF
FF
FF
FF
FF
FF
FF
FF
FF
FF
ENDCHAR
STARTCHAR 003
ENCODING 3
SWIDTH 256 0
DWIDTH 8 0
BBX 8 13 0 3
BITMAP
E7
FF
FF
FF
FF
FF
FF
FF
7E
7E
3C
18
18
ENDCHAR
STARTCHAR 004
ENCODING 4
SWIDTH 256 0
DWIDTH 8 0
BBX 7 13 0 3
BITMAP
10
38
7C
7C
FE
FE
FE
FE
FE
7C
7C
38
10
ENDCHAR
STARTCHAR 005
ENCODING 5
SWIDTH 256 0
DWIDTH 8 0
BBX 7 18 0 0
BITMAP
10
38
38
7C
FE
EE
EE
C6
C6
EE
EE
FE
7C
10
10
38
38
38
ENDCHAR
STARTCHAR 006
ENCODING 6
SWIDTH 256 0
DWIDTH 8 0
BBX 7 18 0 0
BITMAP
10
10
38
7C
7C
FE
FE
FE
FE
FE
7C
7C
38
10
10
38
7C
7C
ENDCHAR
STARTCHAR 007
ENCODING 7
SWIDTH 256 0
DWIDTH 8 0
BBX 4 8 2 4
BITMAP
60
F0
F0
F0
F0
F0
F0
60
ENDCHAR
STARTCHAR 008
ENCODING 8
SWIDTH 256 0
DWIDTH 8 0
BBX 8 31 0 -7
BITMAP
FF
FF
FF
FF
FF
FF
FF
FF
FF
FF
FF
FF
FF
FF
FF
C3
C3
FF
FF
FF
FF
FF
FF
FF
FF
FF
FF
FF
FF
FF
FF
ENDCHAR
STARTCHAR 009
ENCODING 9
SWIDTH 256 0
DWIDTH 8 0
BBX 6 13 1 3
BITMAP
FC
FC
FC
FC
CC
CC
CC
CC
CC
FC
FC
FC
FC
ENDCHAR
STARTCHAR 010
ENCODING 10
SWIDTH 256 0
DWIDTH 8 0
BBX 8 32 0 -9
BITMAP
FF
FF
FF
FF
FF
FF
FF
FF
FF
FF
FF
FF
FF
FF
FF
FF
FF
FF
FF
FF
FF
FF
FF
FF
FF
FF
FF
FF
FF
FF
FF
FF
ENDCHAR
STARTCHAR 011
ENCODING 11
SWIDTH 256 0
DWIDTH 8 0
BBX 7 20 0 -1
BITMAP
3E
3E
0E
0E
1E
1E
7E
FA
FC
CC
CC
CC
CC
CC
CC
CC
CC
CC
FC
F8
ENDCHAR
STARTCHAR 012
ENCODING 12
SWIDTH 256 0
DWIDTH 8 0
BBX 6 21 1 0
BITMAP
FC
FC
CC
CC
CC
CC
CC
CC
CC
CC
FC
FC
30
30
30
FC
FC
FC
30
30
30
ENDCHAR
STARTCHAR 013
ENCODING 13
SWIDTH 256 0
DWIDTH 8 0
BBX 7 21 0 0
BITMAP
1E
1E
1E
16
16
1E
1E
1C
10
10
10
10
10
10
10
10
70
F0
F0
F0
E0
ENDCHAR
STARTCHAR 014
ENCODING 14
SWIDTH 256 0
DWIDTH 8 0
BBX 7 23 0 -2
BITMAP
7E
FE
E6
C6
C6
FE
FE
FE
C6
C6
C6
C6
C6
C6
C6
CE
FE
FE
FE
FE
EC
C0
C0
ENDCHAR
STARTCHAR 015
ENCODING 15
SWIDTH 256 0
DWIDTH 8 0
BBX 8 18 0 0
BITMAP
18
18
DB
DB
FF
FF
FF
FF
E7
FF
3C
FF
FF
DB
DB
18
18
18
ENDCHAR
STARTCHAR 016
ENCODING 16
SWIDTH 256 0
DWIDTH 8 0
BBX 7 21 0 0
BITMAP
80
C0
C0
E0
F0
F0
F8
F8
FC
FE
FE
FE
FC
F8
F8
F0
F0
E0
C0
C0
80
ENDCHAR
STARTCHAR 017
ENCODING 17
SWIDTH 256 0
DWIDTH 8 0
BBX 7 21 0 0
BITMAP
02
06
06
0E
1E
1E
3E
3E
7E
FE
FE
FE
7E
3E
3E
1E
1E
0E
06
06
02
ENDCHAR
STARTCHAR 018
ENCODING 18
SWIDTH 256 0
DWIDTH 8 0
BBX 6 19 1 2
BITMAP
30
78
78
FC
FC
30
30
30
30
30
30
30
30
30
FC
FC
78
78
30
ENDCHAR
STARTCHAR 019
ENCODING 19
SWIDTH 256 0
DWIDTH 8 0
BBX 5 21 1 0
BITMAP
D8
D8
D8
D8
D8
D8
D8
D8
D8
D8
D8
D8
D8
D8
D8
88
00
88
D8
D8
D8
ENDCHAR
STARTCHAR 020
ENCODING 20
SWIDTH 256 0
DWIDTH 8 0
BBX 7 21 0 0
BITMAP
FE
FE
DE
DE
DE
DE
DE
DE
DE
FE
FE
1E
1E
1E
1E
1E
1E
1E
1E
1E
1E
ENDCHAR
STARTCHAR 021
ENCODING 21
SWIDTH 256 0
DWIDTH 8 0
BBX 7 23 0 -2
BITMAP
FE
FE
C6
C2
C2
60
60
70
F8
D8
CC
C6
C6
6E
3C
38
18
1C
8C
86
C6
FE
FE
ENDCHAR
STARTCHAR 022
ENCODING 22
SWIDTH 256 0
DWIDTH 8 0
BBX 7 8 0 0
BITMAP
FE
FE
FE
FE
FE
FE
FE
FE
ENDCHAR
STARTCHAR 023
ENCODING 23
SWIDTH 256 0
DWIDTH 8 0
BBX 6 21 1 0
BITMAP
30
78
78
FC
FC
30
30
30
30
30
30
30
30
FC
FC
78
78
30
00
FC
FC
ENDCHAR
STARTCHAR 024
ENCODING 24
SWIDTH 256 0
DWIDTH 8 0
BBX 6 21 1 0
BITMAP
30
78
78
FC
FC
30
30
30
30
30
30
30
30
30
30
30
30
30
30
30
30
ENDCHAR
STARTCHAR 025
ENCODING 25
SWIDTH 256 0
DWIDTH 8 0
BBX 6 21 1 0
BITMAP
30
30
30
30
30
30
30
30
30
30
30
30
30
30
30
30
FC
FC
78
78
30
ENDCHAR
STARTCHAR 026
ENCODING 26
SWIDTH 256 0
DWIDTH 8 0
BBX 8 9 0 3
BITMAP
1C
0E
06
FF
FF
FF
06
0E
1C
ENDCHAR
STARTCHAR 027
ENCODING 27
SWIDTH 256 0
DWIDTH 8 0
BBX 8 9 0 3
BITMAP
38
70
60
FF
FF
FF
60
70
38
ENDCHAR
STARTCHAR 028
ENCODING 28
SWIDTH 256 0
DWIDTH 8 0
BBX 7 9 0 6
BITMAP
C0
C0
C0
C0
C0
C0
FE
FE
FE
ENDCHAR
STARTCHAR 029
ENCODING 29
SWIDTH 256 0
DWIDTH 8 0
BBX 7 9 0 3
BITMAP
28
6C
6C
FE
FE
FE
6C
6C
28
ENDCHAR
STARTCHAR 030
ENCODING 30
SWIDTH 256 0
DWIDTH 8 0
BBX 7 14 0 3
BITMAP
10
10
38
38
7C
7C
7E
FE
FE
FE
FE
FE
FE
FE
ENDCHAR
STARTCHAR 031
ENCODING 31
SWIDTH 256 0
DWIDTH 8 0
BBX 7 13 0 2
BITMAP
FE
FE
FE
FE
FE
FE
7C
7C
7C
38
38
10
10
ENDCHAR
STARTCHAR 032
ENCODING 32
SWIDTH 256 0
DWIDTH 8 0
BBX 0 0 0 0
BITMAP
ENDCHAR
STARTCHAR 033
ENCODING 33
SWIDTH 256 0
DWIDTH 8 0
BBX 3 21 3 0
BITMAP
E0
E0
E0
E0
E0
E0
E0
E0
E0
E0
E0
E0
E0
E0
40
00
00
40
E0
E0
E0
ENDCHAR
STARTCHAR 034
ENCODING 34
SWIDTH 256 0
DWIDTH 8 0
BBX 5 7 1 17
BITMAP
D8
D8
D8
D8
D8
D8
D8
ENDCHAR
STARTCHAR 035
ENCODING 35
SWIDTH 256 0
DWIDTH 8 0
BBX 7 15 0 3
BITMAP
6C
6C
6C
FE
FE
FE
6C
6C
6C
FE
FE
FE
6C
6C
6C
ENDCHAR
STARTCHAR 036
ENCODING 36
SWIDTH 256 0
DWIDTH 8 0
BBX 7 27 0 -3
BITMAP
18
18
18
7C
FE
FE
DE
DE
DE
D8
D8
F8
F8
7E
1E
1E
1E
DE
DE
DE
DE
FE
FE
7C
18
18
18
ENDCHAR
STARTCHAR 037
ENCODING 37
SWIDTH 256 0
DWIDTH 8 0
BBX 8 15 0 0
BITMAP
C1
C3
C3
07
0E
0C
1C
38
30
70
E0
C0
C3
83
03
ENDCHAR
STARTCHAR 038
ENCODING 38
SWIDTH 256 0
DWIDTH 8 0
BBX 7 21 0 -1
BITMAP
38
7C
6C
CC
CC
CE
6E
7E
7E
7C
F8
DC
CC
CC
CC
CC
CC
CC
CC
FE
FE
ENDCHAR
STARTCHAR 039
ENCODING 39
SWIDTH 256 0
DWIDTH 8 0
BBX 3 8 2 16
BITMAP
60
60
60
60
60
E0
E0
E0
ENDCHAR
STARTCHAR 040
ENCODING 40
SWIDTH 256 0
DWIDTH 8 0
BBX 4 21 2 0
BITMAP
30
70
E0
C0
C0
C0
C0
C0
C0
C0
C0
C0
C0
C0
C0
C0
C0
C0
E0
70
30
ENDCHAR
STARTCHAR 041
ENCODING 41
SWIDTH 256 0
DWIDTH 8 0
BBX 4 21 2 0
BITMAP
C0
E0
70
30
30
30
30
30
30
30
30
30
30
30
30
30
30
30
70
E0
C0
ENDCHAR
STARTCHAR 042
ENCODING 42
SWIDTH 256 0
DWIDTH 8 0
BBX 7 13 0 4
BITMAP
EE
EE
EE
7C
FE
FE
FE
FE
FE
7C
EE
EE
EE
ENDCHAR
STARTCHAR 043
ENCODING 43
SWIDTH 256 0
DWIDTH 8 0
BBX 6 9 1 6
BITMAP
30
30
30
FC
FC
FC
30
30
30
ENDCHAR
STARTCHAR 044
ENCODING 44
SWIDTH 256 0
DWIDTH 8 0
BBX 3 8 1 -2
BITMAP
60
60
60
60
60
E0
E0
E0
ENDCHAR
STARTCHAR 045
ENCODING 45
SWIDTH 256 0
DWIDTH 8 0
BBX 6 3 1 10
BITMAP
FC
FC
FC
ENDCHAR
STARTCHAR 046
ENCODING 46
SWIDTH 256 0
DWIDTH 8 0
BBX 2 4 3 0
BITMAP
C0
C0
C0
C0
ENDCHAR
STARTCHAR 047
ENCODING 47
SWIDTH 256 0
DWIDTH 8 0
BBX 7 11 0 5
BITMAP
06
06
0C
18
18
30
30
60
C0
C0
80
ENDCHAR
STARTCHAR 048
ENCODING 48
SWIDTH 256 0
DWIDTH 8 0
BBX 7 21 0 0
BITMAP
38
7C
6C
EE
C6
C6
C6
C6
C6
D6
D6
D6
C6
C6
C6
C6
C6
EE
6C
7C
38
ENDCHAR
STARTCHAR 049
ENCODING 49
SWIDTH 256 0
DWIDTH 8 0
BBX 6 21 1 0
BITMAP
30
70
70
F0
F0
F0
30
30
30
30
30
30
30
30
30
30
30
30
30
FC
FC
ENDCHAR
STARTCHAR 050
ENCODING 50
SWIDTH 256 0
DWIDTH 8 0
BBX 7 21 0 0
BITMAP
FE
FE
C6
C6
86
06
06
06
06
7E
FC
C0
C0
C0
C0
C0
C2
C6
C6
FE
FE
ENDCHAR
STARTCHAR 051
ENCODING 51
SWIDTH 256 0
DWIDTH 8 0
BBX 7 21 0 0
BITMAP
FE
FE
C6
C6
86
06
06
06
06
3E
3E
06
06
06
06
06
86
C6
C6
FE
FE
ENDCHAR
STARTCHAR 052
ENCODING 52
SWIDTH 256 0
DWIDTH 8 0
BBX 7 21 0 0
BITMAP
0C
1C
1C
3C
7C
7C
EC
CC
CC
FE
FE
0C
0C
0C
0C
0C
0C
0C
0C
1E
1E
ENDCHAR
STARTCHAR 053
ENCODING 53
SWIDTH 256 0
DWIDTH 8 0
BBX 7 21 0 0
BITMAP
FE
FE
C0
C0
C0
C0
C0
C0
C0
FE
FE
06
06
06
06
06
86
C6
C6
FE
FE
ENDCHAR
STARTCHAR 054
ENCODING 54
SWIDTH 256 0
DWIDTH 8 0
BBX 7 21 0 0
BITMAP
3C
7C
60
E0
C0
C0
C0
C0
C0
FC
FE
C6
C6
C6
C6
C6
C6
C6
C6
FE
FE
ENDCHAR
STARTCHAR 055
ENCODING 55
SWIDTH 256 0
DWIDTH 8 0
BBX 7 21 0 0
BITMAP
FE
FE
C6
C6
86
06
06
0E
0E
1C
18
10
10
10
10
10
10
10
10
10
10
ENDCHAR
STARTCHAR 056
ENCODING 56
SWIDTH 256 0
DWIDTH 8 0
BBX 7 21 0 0
BITMAP
FE
FE
C6
C6
C6
C6
C6
C6
C6
FE
FE
C6
C6
C6
C6
C6
C6
C6
C6
FE
FE
ENDCHAR
STARTCHAR 057
ENCODING 57
SWIDTH 256 0
DWIDTH 8 0
BBX 7 21 0 0
BITMAP
FE
FE
C6
C6
C6
C6
C6
C6
C6
FE
7E
06
06
06
06
06
06
0E
0C
FC
F8
ENDCHAR
STARTCHAR 058
ENCODING 58
SWIDTH 256 0
DWIDTH 8 0
BBX 2 11 3 4
BITMAP
C0
C0
C0
C0
00
00
00
C0
C0
C0
C0
ENDCHAR
STARTCHAR 059
ENCODING 59
SWIDTH 256 0
DWIDTH 8 0
BBX 3 14 1 -2
BITMAP
60
60
60
00
00
00
60
60
60
60
60
60
E0
E0
ENDCHAR
STARTCHAR 060
ENCODING 60
SWIDTH 256 0
DWIDTH 8 0
BBX 5 13 0 3
BITMAP
18
18
30
60
60
C0
C0
C0
60
60
30
18
18
ENDCHAR
STARTCHAR 061
ENCODING 61
SWIDTH 256 0
DWIDTH 8 0
BBX 6 7 1 7
BITMAP
FC
FC
FC
00
FC
FC
FC
ENDCHAR
STARTCHAR 062
ENCODING 62
SWIDTH 256 0
DWIDTH 8 0
BBX 5 13 2 3
BITMAP
C0
C0
60
30
30
18
18
18
30
30
60
C0
C0
ENDCHAR
STARTCHAR 063
ENCODING 63
SWIDTH 256 0
DWIDTH 8 0
BBX 7 21 0 0
BITMAP
FE
FE
C6
C6
86
06
0E
0C
1C
18
10
10
10
10
10
00
00
10
10
10
10
ENDCHAR
STARTCHAR 064
ENCODING 64
SWIDTH 256 0
DWIDTH 8 0
BBX 7 20 0 0
BITMAP
FE
FE
C6
C6
C6
CE
CE
DE
DE
DE
DE
DE
DE
DC
CC
C0
C0
C0
FE
FE
ENDCHAR
STARTCHAR 065
ENCODING 65
SWIDTH 256 0
DWIDTH 8 0
BBX 6 21 1 0
BITMAP
30
30
78
78
FC
CC
CC
CC
CC
FC
FC
CC
CC
CC
CC
CC
CC
CC
CC
CC
CC
ENDCHAR
STARTCHAR 066
ENCODING 66
SWIDTH 256 0
DWIDTH 8 0
BBX 7 21 0 0
BITMAP
FE
FE
66
66
66
66
66
66
66
7E
7E
66
66
66
66
66
66
66
66
FE
FE
ENDCHAR
STARTCHAR 067
ENCODING 67
SWIDTH 256 0
DWIDTH 8 0
BBX 7 21 0 0
BITMAP
3E
7E
66
E6
C2
C0
C0
C0
C0
C0
C0
C0
C0
C0
C0
C0
C2
E6
66
7E
3E
ENDCHAR
STARTCHAR 068
ENCODING 68
SWIDTH 256 0
DWIDTH 8 0
BBX 7 21 0 0
BITMAP
FC
FE
6E
66
66
66
66
66
66
66
66
66
66
66
66
66
66
66
6E
FE
FC
ENDCHAR
STARTCHAR 069
ENCODING 69
SWIDTH 256 0
DWIDTH 8 0
BBX 7 21 0 0
BITMAP
FE
FE
66
66
62
60
60
60
6C
7C
7C
6C
60
60
60
60
62
66
66
FE
FE
ENDCHAR
STARTCHAR 070
ENCODING 70
SWIDTH 256 0
DWIDTH 8 0
BBX 7 21 0 0
BITMAP
FE
FE
66
66
62
60
60
60
6C
7C
7C
6C
60
60
60
60
60
60
60
F0
F0
ENDCHAR
STARTCHAR 071
ENCODING 71
SWIDTH 256 0
DWIDTH 8 0
BBX 7 21 0 0
BITMAP
3E
7E
66
C6
C2
C0
C0
C0
C0
C0
C0
DE
DE
CE
C6
C6
C6
C6
EE
FE
7E
ENDCHAR
STARTCHAR 072
ENCODING 72
SWIDTH 256 0
DWIDTH 8 0
BBX 7 21 0 0
BITMAP
C6
C6
C6
C6
C6
C6
C6
C6
C6
FE
FE
C6
C6
C6
C6
C6
C6
C6
C6
C6
C6
ENDCHAR
STARTCHAR 073
ENCODING 73
SWIDTH 256 0
DWIDTH 8 0
BBX 4 21 2 0
BITMAP
F0
F0
60
60
60
60
60
60
60
60
60
60
60
60
60
60
60
60
60
F0
F0
ENDCHAR
STARTCHAR 074
ENCODING 74
SWIDTH 256 0
DWIDTH 8 0
BBX 6 21 1 0
BITMAP
3C
3C
18
18
18
18
18
18
18
18
18
18
18
D8
D8
D8
D8
D8
D8
F8
F0
ENDCHAR
STARTCHAR 075
ENCODING 75
SWIDTH 256 0
DWIDTH 8 0
BBX 7 21 0 0
BITMAP
E6
E6
66
66
66
66
66
66
66
7E
7C
6E
66
66
66
66
66
66
66
E6
E6
ENDCHAR
STARTCHAR 076
ENCODING 76
SWIDTH 256 0
DWIDTH 8 0
BBX 7 21 0 0
BITMAP
F0
F0
60
60
60
60
60
60
60
60
60
60
60
60
60
60
62
66
66
FE
FE
ENDCHAR
STARTCHAR 077
ENCODING 77
SWIDTH 256 0
DWIDTH 8 0
BBX 7 21 0 0
BITMAP
C6
EE
FE
FE
FE
FE
D6
D6
D6
D6
D6
D6
C6
C6
C6
C6
C6
C6
C6
C6
C6
ENDCHAR
STARTCHAR 078
ENCODING 78
SWIDTH 256 0
DWIDTH 8 0
BBX 7 21 0 0
BITMAP
C6
C6
C6
E6
F6
F6
FE
DE
DE
CE
C6
C6
C6
C6
C6
C6
C6
C6
C6
C6
C6
ENDCHAR
STARTCHAR 079
ENCODING 79
SWIDTH 256 0
DWIDTH 8 0
BBX 6 21 1 0
BITMAP
FC
FC
CC
CC
CC
CC
CC
CC
CC
CC
CC
CC
CC
CC
CC
CC
CC
CC
CC
FC
FC
ENDCHAR
STARTCHAR 080
ENCODING 80
SWIDTH 256 0
DWIDTH 8 0
BBX 7 21 1 0
BITMAP
FE
FE
66
66
66
66
66
66
66
7E
7C
60
60
60
60
60
60
60
60
F0
F0
ENDCHAR
STARTCHAR 081
ENCODING 81
SWIDTH 256 0
DWIDTH 8 0
BBX 6 24 1 -3
BITMAP
FC
FC
CC
CC
CC
CC
CC
CC
CC
CC
CC
CC
CC
CC
CC
EC
FC
FC
FC
FC
78
30
3C
1C
ENDCHAR
STARTCHAR 082
ENCODING 82
SWIDTH 256 0
DWIDTH 8 0
BBX 7 21 0 0
BITMAP
FE
FE
66
66
66
66
66
66
66
7E
7E
66
66
66
66
66
66
66
66
E6
E6
ENDCHAR
STARTCHAR 083
ENCODING 83
SWIDTH 256 0
DWIDTH 8 0
BBX 7 21 0 0
BITMAP
FE
FE
C6
C6
C2
C0
C0
C0
C0
FC
7E
06
06
06
06
06
86
C6
C6
FE
FE
ENDCHAR
STARTCHAR 084
ENCODING 84
SWIDTH 256 0
DWIDTH 8 0
BBX 7 21 1 0
BITMAP
FE
FE
FE
D6
92
10
10
10
10
10
10
10
10
10
10
10
10
10
38
7C
7C
ENDCHAR
STARTCHAR 085
ENCODING 85
SWIDTH 256 0
DWIDTH 8 0
BBX 6 21 1 0
BITMAP
CC
CC
CC
CC
CC
CC
CC
CC
CC
CC
CC
CC
CC
CC
CC
CC
CC
CC
CC
FC
FC
ENDCHAR
STARTCHAR 086
ENCODING 86
SWIDTH 256 0
DWIDTH 8 0
BBX 7 21 0 0
BITMAP
C6
C6
C6
C6
C6
C6
C6
C6
C6
C6
C6
C6
C6
C6
C6
C6
EE
7C
7C
38
10
ENDCHAR
STARTCHAR 087
ENCODING 87
SWIDTH 256 0
DWIDTH 8 0
BBX 7 21 0 0
BITMAP
C6
C6
C6
C6
C6
C6
C6
C6
C6
D6
D6
D6
D6
D6
D6
FE
FE
FE
FE
EE
C6
ENDCHAR
STARTCHAR 088
ENCODING 88
SWIDTH 256 0
DWIDTH 8 0
BBX 7 21 0 0
BITMAP
C6
C6
C6
C6
C6
6C
6C
7C
38
38
10
38
38
7C
6C
6C
C6
C6
C6
C6
C6
ENDCHAR
STARTCHAR 089
ENCODING 89
SWIDTH 256 0
DWIDTH 8 0
BBX 6 21 1 0
BITMAP
CC
CC
CC
CC
CC
CC
CC
CC
CC
FC
FC
30
30
30
30
30
30
30
30
FC
FC
ENDCHAR
STARTCHAR 090
ENCODING 90
SWIDTH 256 0
DWIDTH 8 0
BBX 7 21 0 0
BITMAP
FE
FE
C6
C6
86
06
06
0E
0E
1C
18
30
70
60
E0
C0
C2
C6
C6
FE
FE
ENDCHAR
STARTCHAR 091
ENCODING 91
SWIDTH 256 0
DWIDTH 8 0
BBX 4 21 2 0
BITMAP
F0
F0
C0
C0
C0
C0
C0
C0
C0
C0
C0
C0
C0
C0
C0
C0
C0
C0
C0
F0
F0
ENDCHAR
STARTCHAR 092
ENCODING 92
SWIDTH 256 0
DWIDTH 8 0
BBX 7 13 0 3
BITMAP
80
C0
C0
E0
70
70
38
1C
1C
0E
06
06
02
ENDCHAR
STARTCHAR 093
ENCODING 93
SWIDTH 256 0
DWIDTH 8 0
BBX 4 21 2 0
BITMAP
F0
F0
30
30
30
30
30
30
30
30
30
30
30
30
30
30
30
30
30
F0
F0
ENDCHAR
STARTCHAR 094
ENCODING 94
SWIDTH 256 0
DWIDTH 8 0
BBX 8 7 0 15
BITMAP
18
18
3C
7E
66
C3
C3
ENDCHAR
STARTCHAR 095
ENCODING 95
SWIDTH 256 0
DWIDTH 8 0
BBX 8 3 0 -3
BITMAP
FF
FF
FF
ENDCHAR
STARTCHAR 096
ENCODING 96
SWIDTH 256 0
DWIDTH 8 0
BBX 3 8 3 16
BITMAP
C0
C0
C0
C0
C0
E0
E0
E0
ENDCHAR
STARTCHAR 097
ENCODING 97
SWIDTH 256 0
DWIDTH 8 0
BBX 7 14 1 0
BITMAP
F8
FC
0C
0C
0C
7C
FC
FC
CC
CC
CC
CC
FE
FE
ENDCHAR
STARTCHAR 098
ENCODING 98
SWIDTH 256 0
DWIDTH 8 0
BBX 7 21 0 0
BITMAP
E0
E0
60
60
60
60
78
7C
7E
66
66
66
66
66
66
66
66
66
66
7E
7E
ENDCHAR
STARTCHAR 099
ENCODING 99
SWIDTH 256 0
DWIDTH 8 0
BBX 6 14 1 0
BITMAP
FC
FC
CC
CC
C4
C0
C0
C0
C0
C4
CC
CC
FC
FC
ENDCHAR
STARTCHAR 100
ENCODING 100
SWIDTH 256 0
DWIDTH 8 0
BBX 7 21 0 0
BITMAP
1C
1C
0C
0C
0C
0C
3C
7C
FC
CC
CC
CC
CC
CC
CC
CC
CC
CC
CC
FE
FE
ENDCHAR
STARTCHAR 101
ENCODING 101
SWIDTH 256 0
DWIDTH 8 0
BBX 7 14 0 0
BITMAP
FE
FE
C6
C6
C6
FE
FE
FE
C0
C2
C6
C6
FE
FE
ENDCHAR
STARTCHAR 102
ENCODING 102
SWIDTH 256 0
DWIDTH 8 0
BBX 6 21 1 0
BITMAP
1C
3C
6C
64
64
64
F0
F8
F8
60
60
60
60
60
60
60
60
60
60
F8
F8
ENDCHAR
STARTCHAR 103
ENCODING 103
SWIDTH 256 0
DWIDTH 8 0
BBX 7 20 0 -5
BITMAP
FE
FE
CC
CC
CC
CC
CC
CC
CC
CC
CC
CC
FC
FC
7C
0C
8C
CC
FC
F8
ENDCHAR
STARTCHAR 104
ENCODING 104
SWIDTH 256 0
DWIDTH 8 0
BBX 7 21 0 0
BITMAP
E0
E0
60
60
60
60
68
6C
7E
76
76
66
66
66
66
66
66
66
66
E6
E6
ENDCHAR
STARTCHAR 105
ENCODING 105
SWIDTH 256 0
DWIDTH 8 0
BBX 4 20 2 0
BITMAP
60
60
60
00
00
E0
E0
E0
60
60
60
60
60
60
60
60
60
60
F0
F0
ENDCHAR
STARTCHAR 106
ENCODING 106
SWIDTH 256 0
DWIDTH 8 0
BBX 5 25 1 -5
BITMAP
18
18
18
08
00
38
38
38
18
18
18
18
18
18
18
18
18
18
18
98
D8
D8
D8
F8
F8
ENDCHAR
STARTCHAR 107
ENCODING 107
SWIDTH 256 0
DWIDTH 8 0
BBX 7 21 0 0
BITMAP
E0
E0
60
60
60
62
66
66
66
6E
7C
78
7C
7C
6E
66
66
66
66
E6
E6
ENDCHAR
STARTCHAR 108
ENCODING 108
SWIDTH 256 0
DWIDTH 8 0
BBX 4 21 2 0
BITMAP
E0
E0
60
60
60
60
60
60
60
60
60
60
60
60
60
60
60
60
60
F0
F0
ENDCHAR
STARTCHAR 109
ENCODING 109
SWIDTH 256 0
DWIDTH 8 0
BBX 7 14 0 0
BITMAP
C6
EE
FE
FE
FE
D6
D6
D6
D6
D6
D6
C6
C6
C6
ENDCHAR
STARTCHAR 110
ENCODING 110
SWIDTH 256 0
DWIDTH 8 0
BBX 7 14 0 0
BITMAP
FE
FE
76
66
66
66
66
66
66
66
66
66
66
66
ENDCHAR
STARTCHAR 111
ENCODING 111
SWIDTH 256 0
DWIDTH 8 0
BBX 6 14 1 0
BITMAP
FC
FC
CC
CC
CC
CC
CC
CC
CC
CC
CC
CC
FC
FC
ENDCHAR
STARTCHAR 112
ENCODING 112
SWIDTH 256 0
DWIDTH 8 0
BBX 7 20 0 -5
BITMAP
FE
FE
66
66
66
66
66
66
66
66
66
66
7E
7E
7C
60
60
60
F0
F0
ENDCHAR
STARTCHAR 113
ENCODING 113
SWIDTH 256 0
DWIDTH 8 0
BBX 7 20 0 -5
BITMAP
FE
FE
CC
CC
CC
CC
CC
CC
CC
CC
CC
CC
FC
FC
7C
0C
0C
0C
1E
1E
ENDCHAR
STARTCHAR 114
ENCODING 114
SWIDTH 256 0
DWIDTH 8 0
BBX 7 14 0 0
BITMAP
FE
FE
76
62
60
60
60
60
60
60
60
60
F0
F0
ENDCHAR
STARTCHAR 115
ENCODING 115
SWIDTH 256 0
DWIDTH 8 0
BBX 7 14 0 0
BITMAP
FE
FE
C6
C6
C2
FC
7C
7E
06
86
C6
C6
FE
FE
ENDCHAR
STARTCHAR 116
ENCODING 116
SWIDTH 256 0
DWIDTH 8 0
BBX 6 21 1 0
BITMAP
10
30
30
30
30
30
FC
FC
FC
30
30
30
30
30
30
30
34
3C
3C
3C
1C
ENDCHAR
STARTCHAR 117
ENCODING 117
SWIDTH 256 0
DWIDTH 8 0
BBX 7 14 0 0
BITMAP
CC
CC
CC
CC
CC
CC
CC
CC
CC
CC
CC
CC
FE
FE
ENDCHAR
STARTCHAR 118
ENCODING 118
SWIDTH 256 0
DWIDTH 8 0
BBX 6 14 1 0
BITMAP
CC
CC
CC
CC
CC
CC
CC
CC
CC
CC
FC
78
30
30
ENDCHAR
STARTCHAR 119
ENCODING 119
SWIDTH 256 0
DWIDTH 8 0
BBX 7 14 0 0
BITMAP
C6
C6
C6
C6
C6
D6
D6
D6
D6
D6
FE
FE
FE
EE
ENDCHAR
STARTCHAR 120
ENCODING 120
SWIDTH 256 0
DWIDTH 8 0
BBX 7 14 0 0
BITMAP
C6
C6
EE
7C
38
38
10
38
38
7C
EE
C6
C6
C6
ENDCHAR
STARTCHAR 121
ENCODING 121
SWIDTH 256 0
DWIDTH 8 0
BBX 6 20 1 -5
BITMAP
CC
CC
CC
CC
CC
CC
CC
CC
CC
CC
CC
CC
FC
FC
7C
0C
0C
1C
F8
F0
ENDCHAR
STARTCHAR 122
ENCODING 122
SWIDTH 256 0
DWIDTH 8 0
BBX 7 14 0 0
BITMAP
FE
FE
C6
C6
8C
18
18
30
30
62
C6
C6
FE
FE
ENDCHAR
STARTCHAR 123
ENCODING 123
SWIDTH 256 0
DWIDTH 8 0
BBX 6 21 1 0
BITMAP
3C
3C
30
30
30
30
30
30
30
F0
C0
F0
30
30
30
30
30
30
30
3C
3C
ENDCHAR
STARTCHAR 124
ENCODING 124
SWIDTH 256 0
DWIDTH 8 0
BBX 2 21 3 0
BITMAP
C0
C0
C0
C0
C0
C0
C0
C0
C0
00
00
00
C0
C0
C0
C0
C0
C0
C0
C0
C0
ENDCHAR
STARTCHAR 125
ENCODING 125
SWIDTH 256 0
DWIDTH 8 0
BBX 6 21 1 0
BITMAP
F0
F0
30
30
30
30
30
30
30
3C
0C
3C
30
30
30
30
30
30
30
F0
F0
ENDCHAR
STARTCHAR 126
ENCODING 126
SWIDTH 256 0
DWIDTH 8 0
BBX 8 6 0 15
BITMAP
7B
7B
DF
DF
9E
8E
ENDCHAR
STARTCHAR 127
ENCODING 127
SWIDTH 256 0
DWIDTH 8 0
BBX 7 15 0 1
BITMAP
10
38
7C
6C
EE
C6
C6
C6
C6
C6
C6
C6
C6
FE
FE
ENDCHAR
STARTCHAR 128
ENCODING 128
SWIDTH 256 0
DWIDTH 8 0
BBX 7 24 0 -4
BITMAP
3E
7E
66
E6
C2
C0
C0
C0
C0
C0
C0
C0
C0
C0
C0
C6
E6
7E
7E
3E
0E
06
FE
FE
ENDCHAR
STARTCHAR 129
ENCODING 129
SWIDTH 256 0
DWIDTH 8 0
BBX 7 21 0 0
BITMAP
CC
CC
CC
88
00
00
88
CC
CC
CC
CC
CC
CC
CC
CC
CC
CC
CC
CC
FE
FE
ENDCHAR
STARTCHAR 130
ENCODING 130
SWIDTH 256 0
DWIDTH 8 0
BBX 7 22 0 0
BITMAP
06
0C
18
18
30
30
00
7C
FE
FE
C6
C6
C6
FE
FE
FE
C0
C2
C6
C6
FE
FE
ENDCHAR
STARTCHAR 131
ENCODING 131
SWIDTH 256 0
DWIDTH 8 0
BBX 7 22 1 0
BITMAP
10
30
78
6C
48
00
00
78
F8
FC
0C
0C
0C
7C
FC
FC
CC
CC
CC
CC
FE
FE
ENDCHAR
STARTCHAR 132
ENCODING 132
SWIDTH 256 0
DWIDTH 8 0
BBX 7 21 1 0
BITMAP
CC
CC
CC
48
00
00
78
F8
FC
0C
0C
0C
FC
FC
FC
CC
CC
CC
CC
FE
FE
ENDCHAR
STARTCHAR 133
ENCODING 133
SWIDTH 256 0
DWIDTH 8 0
BBX 7 22 1 0
BITMAP
C0
60
30
30
18
18
00
78
F8
FC
0C
0C
0C
7C
FC
FC
CC
CC
CC
CC
FE
FE
ENDCHAR
STARTCHAR 134
ENCODING 134
SWIDTH 256 0
DWIDTH 8 0
BBX 7 22 1 0
BITMAP
38
7C
6C
6C
7C
7C
38
78
F8
FC
0C
0C
0C
7C
FC
FC
CC
CC
CC
CC
FE
FE
ENDCHAR
STARTCHAR 135
ENCODING 135
SWIDTH 256 0
DWIDTH 8 0
BBX 6 19 1 -4
BITMAP
FC
FC
CC
CC
C4
C0
C0
C0
C0
CC
CC
DC
F8
F8
7C
0C
0C
FC
FC
ENDCHAR
STARTCHAR 136
ENCODING 136
SWIDTH 256 0
DWIDTH 8 0
BBX 7 22 0 0
BITMAP
10
38
6C
6C
44
00
00
7C
FE
FE
C6
C6
C6
FE
FE
FE
C0
C2
C6
C6
FE
FE
ENDCHAR
STARTCHAR 137
ENCODING 137
SWIDTH 256 0
DWIDTH 8 0
BBX 7 21 0 0
BITMAP
C6
C6
C6
44
00
00
7C
FE
FE
C6
C6
C6
FE
FE
FE
C0
C2
C6
C6
FE
FE
ENDCHAR
STARTCHAR 138
ENCODING 138
SWIDTH 256 0
DWIDTH 8 0
BBX 7 22 0 0
BITMAP
C0
60
30
30
18
18
00
7C
FE
FE
C6
C6
C6
FE
FE
FE
C0
C2
C6
C6
FE
FE
ENDCHAR
STARTCHAR 139
ENCODING 139
SWIDTH 256 0
DWIDTH 8 0
BBX 5 20 1 0
BITMAP
D8
D8
D8
88
00
70
F0
70
30
30
30
30
30
30
30
30
30
30
F8
F8
ENDCHAR
STARTCHAR 140
ENCODING 140
SWIDTH 256 0
DWIDTH 8 0
BBX 5 22 1 0
BITMAP
20
70
70
D8
88
00
00
60
F0
F0
30
30
30
30
30
30
30
30
30
30
F8
F8
ENDCHAR
STARTCHAR 141
ENCODING 141
SWIDTH 256 0
DWIDTH 8 0
BBX 5 22 1 0
BITMAP
C0
C0
60
30
20
00
00
60
F0
F0
30
30
30
30
30
30
30
30
30
30
F8
F8
ENDCHAR
STARTCHAR 142
ENCODING 142
SWIDTH 256 0
DWIDTH 8 0
BBX 6 24 1 0
BITMAP
CC
CC
CC
48
30
78
78
FC
CC
CC
CC
CC
FC
FC
CC
CC
CC
CC
CC
CC
CC
CC
CC
CC
ENDCHAR
STARTCHAR 143
ENCODING 143
SWIDTH 256 0
DWIDTH 8 0
BBX 6 24 1 0
BITMAP
30
78
78
78
30
30
30
30
78
FC
CC
CC
CC
FC
FC
FC
CC
CC
CC
CC
CC
CC
CC
CC
ENDCHAR
STARTCHAR 144
ENCODING 144
SWIDTH 256 0
DWIDTH 8 0
BBX 7 24 0 0
BITMAP
06
0C
18
18
10
FE
FE
FE
66
66
60
60
6C
7C
7C
7C
68
60
60
62
66
66
FE
FE
ENDCHAR
STARTCHAR 145
ENCODING 145
SWIDTH 256 0
DWIDTH 8 0
BBX 7 15 0 0
BITMAP
C6
CE
FE
7E
3E
36
66
7E
FE
FC
CC
CC
CC
FE
FE
ENDCHAR
STARTCHAR 146
ENCODING 146
SWIDTH 256 0
DWIDTH 8 0
BBX 7 21 0 0
BITMAP
3E
7E
6C
EC
CC
CC
FE
FE
FE
CC
CC
CC
CC
CC
CC
CC
CC
CC
CC
CE
CE
ENDCHAR
STARTCHAR 147
ENCODING 147
SWIDTH 256 0
DWIDTH 8 0
BBX 6 22 1 0
BITMAP
30
30
78
48
48
00
00
78
FC
FC
CC
CC
CC
CC
CC
CC
CC
CC
CC
CC
FC
FC
ENDCHAR
STARTCHAR 148
ENCODING 148
SWIDTH 256 0
DWIDTH 8 0
BBX 6 21 1 0
BITMAP
CC
CC
CC
48
00
00
78
FC
FC
CC
CC
CC
CC
CC
CC
CC
CC
CC
CC
FC
FC
ENDCHAR
STARTCHAR 149
ENCODING 149
SWIDTH 256 0
DWIDTH 8 0
BBX 6 22 1 0
BITMAP
C0
60
30
30
18
18
00
78
FC
FC
CC
CC
CC
CC
CC
CC
CC
CC
CC
CC
FC
FC
ENDCHAR
STARTCHAR 150
ENCODING 150
SWIDTH 256 0
DWIDTH 8 0
BBX 7 22 0 0
BITMAP
10
30
78
6C
48
00
00
84
C6
C6
C6
C6
C6
C6
C6
C6
C6
C6
C6
CE
FE
FE
ENDCHAR
STARTCHAR 151
ENCODING 151
SWIDTH 256 0
DWIDTH 8 0
BBX 7 22 0 0
BITMAP
C0
60
30
30
18
18
00
84
C6
C6
C6
C6
C6
C6
C6
C6
C6
C6
C6
CE
FE
FE
ENDCHAR
STARTCHAR 152
ENCODING 152
SWIDTH 256 0
DWIDTH 8 0
BBX 6 26 1 -5
BITMAP
CC
CC
CC
84
00
00
84
CC
CC
CC
CC
CC
CC
CC
CC
CC
CC
CC
FC
7C
7C
0C
0C
1C
F8
F0
ENDCHAR
STARTCHAR 153
ENCODING 153
SWIDTH 256 0
DWIDTH 8 0
BBX 6 24 1 0
BITMAP
CC
CC
CC
48
00
78
FC
FC
CC
CC
CC
CC
CC
CC
CC
CC
CC
CC
CC
CC
CC
CC
FC
FC
ENDCHAR
STARTCHAR 154
ENCODING 154
SWIDTH 256 0
DWIDTH 8 0
BBX 6 24 1 0
BITMAP
CC
CC
CC
84
00
84
CC
CC
CC
CC
CC
CC
CC
CC
CC
CC
CC
CC
CC
CC
CC
CC
FC
FC
ENDCHAR
STARTCHAR 155
ENCODING 155
SWIDTH 256 0
DWIDTH 8 0
BBX 7 27 0 -3
BITMAP
18
18
18
3C
7E
7E
FE
FA
D8
D8
D8
D8
D8
D8
D8
D8
D8
D8
D8
FA
FE
7E
7E
3C
18
18
18
ENDCHAR
STARTCHAR 156
ENCODING 156
SWIDTH 256 0
DWIDTH 8 0
BBX 7 23 0 0
BITMAP
38
7C
6C
66
66
66
60
60
60
F0
F0
60
60
60
60
60
62
62
62
62
66
FE
FE
ENDCHAR
STARTCHAR 157
ENCODING 157
SWIDTH 256 0
DWIDTH 8 0
BBX 6 21 1 0
BITMAP
CC
CC
CC
CC
CC
78
78
30
30
FC
FC
30
30
FC
FC
FC
30
30
30
30
30
ENDCHAR
STARTCHAR 158
ENCODING 158
SWIDTH 256 0
DWIDTH 8 0
BBX 7 23 0 0
BITMAP
F8
FC
CC
C6
C6
C6
FC
FC
F8
C6
C6
C6
CE
CE
CE
C6
C6
C6
C6
C6
C6
C6
C6
ENDCHAR
STARTCHAR 159
ENCODING 159
SWIDTH 256 0
DWIDTH 8 0
BBX 8 25 0 -3
BITMAP
0F
1F
1B
19
19
19
18
18
18
18
7E
7E
18
18
18
18
18
18
18
98
98
98
D8
F8
F0
ENDCHAR
STARTCHAR 160
ENCODING 160
SWIDTH 256 0
DWIDTH 8 0
BBX 7 22 1 0
BITMAP
18
18
30
60
60
40
00
78
F8
FC
0C
0C
0C
7C
FC
FC
CC
CC
CC
EC
FE
FE
ENDCHAR
STARTCHAR 161
ENCODING 161
SWIDTH 256 0
DWIDTH 8 0
BBX 4 22 2 0
BITMAP
30
30
60
40
C0
80
00
C0
E0
E0
60
60
60
60
60
60
60
60
60
60
F0
F0
ENDCHAR
STARTCHAR 162
ENCODING 162
SWIDTH 256 0
DWIDTH 8 0
BBX 6 22 1 0
BITMAP
0C
18
30
30
60
60
00
78
FC
FC
CC
CC
CC
CC
CC
CC
CC
CC
CC
CC
FC
FC
ENDCHAR
STARTCHAR 163
ENCODING 163
SWIDTH 256 0
DWIDTH 8 0
BBX 7 22 0 0
BITMAP
0C
18
18
30
60
60
00
80
CC
CC
CC
CC
CC
CC
CC
CC
CC
CC
CC
CC
FE
FE
ENDCHAR
STARTCHAR 164
ENCODING 164
SWIDTH 256 0
DWIDTH 8 0
BBX 7 21 0 0
BITMAP
76
F6
DE
8C
00
00
DC
FE
FE
76
66
66
66
66
66
66
66
66
66
66
66
ENDCHAR
STARTCHAR 165
ENCODING 165
SWIDTH 256 0
DWIDTH 8 0
BBX 7 23 0 0
BITMAP
3E
6E
C4
C0
C6
C6
E6
E6
F6
FE
DE
DE
CE
C6
C6
C6
C6
C6
C6
C6
C6
C6
C6
ENDCHAR
STARTCHAR 166
ENCODING 166
SWIDTH 256 0
DWIDTH 8 0
BBX 6 13 1 9
BITMAP
F8
F8
D8
D8
D8
D8
FC
FC
7C
00
00
FC
FC
ENDCHAR
STARTCHAR 167
ENCODING 167
SWIDTH 256 0
DWIDTH 8 0
BBX 6 13 1 9
BITMAP
FC
FC
CC
CC
CC
CC
FC
FC
78
00
00
FC
FC
ENDCHAR
STARTCHAR 168
ENCODING 168
SWIDTH 256 0
DWIDTH 8 0
BBX 7 23 0 0
BITMAP
18
18
18
08
00
00
08
18
18
18
18
30
70
E0
E0
C0
C0
C0
C2
C6
C6
FE
FE
ENDCHAR
STARTCHAR 169
ENCODING 169
SWIDTH 256 0
DWIDTH 8 0
BBX 7 13 0 0
BITMAP
FE
FE
C0
C0
C0
C0
C0
C0
C0
C0
C0
C0
C0
ENDCHAR
STARTCHAR 170
ENCODING 170
SWIDTH 256 0
DWIDTH 8 0
BBX 7 13 0 0
BITMAP
FE
FE
06
06
06
06
06
06
06
06
06
06
06
ENDCHAR
STARTCHAR 171
ENCODING 171
SWIDTH 256 0
DWIDTH 8 0
BBX 7 21 0 0
BITMAP
C0
C0
C2
C6
C6
CC
CC
D8
F0
30
60
C0
DE
BE
A6
06
0C
0C
18
3A
3E
ENDCHAR
STARTCHAR 172
ENCODING 172
SWIDTH 256 0
DWIDTH 8 0
BBX 7 21 0 0
BITMAP
C0
C0
C2
C6
C6
CC
CC
D8
F6
36
6E
DE
DE
B6
BE
3E
3E
06
06
06
06
ENDCHAR
STARTCHAR 173
ENCODING 173
SWIDTH 256 0
DWIDTH 8 0
BBX 3 21 3 0
BITMAP
E0
E0
E0
40
00
00
40
E0
E0
E0
E0
E0
E0
E0
E0
E0
E0
E0
E0
E0
E0
ENDCHAR
STARTCHAR 174
ENCODING 174
SWIDTH 256 0
DWIDTH 8 0
BBX 8 12 0 2
BITMAP
1B
1B
36
6C
6C
D8
D8
6C
6C
36
1B
1B
ENDCHAR
STARTCHAR 175
ENCODING 175
SWIDTH 256 0
DWIDTH 8 0
BBX 8 12 0 2
BITMAP
D8
D8
6C
36
36
1B
1B
36
36
6C
D8
D8
ENDCHAR
STARTCHAR 176
ENCODING 176
SWIDTH 256 0
DWIDTH 8 0
BBX 8 32 0 -9
BITMAP
FF
FF
FF
FF
FF
FF
FF
FF
FF
FF
FF
FF
FF
FF
FF
FF
FF
FF
FF
FF
FF
FF
FF
FF
FF
FF
FF
FF
FF
FF
FF
FF
ENDCHAR
STARTCHAR 177
ENCODING 177
SWIDTH 256 0
DWIDTH 8 0
BBX 8 32 0 -9
BITMAP
FF
FF
FF
FF
FF
FF
FF
FF
FF
FF
FF
FF
FF
FF
FF
FF
FF
FF
FF
FF
FF
FF
FF
FF
FF
FF
FF
FF
FF
FF
FF
FF
ENDCHAR
STARTCHAR 178
ENCODING 178
SWIDTH 256 0
DWIDTH 8 0
BBX 8 32 0 -9
BITMAP
FF
FF
FF
FF
FF
FF
FF
FF
FF
FF
FF
FF
FF
FF
FF
FF
FF
FF
FF
FF
FF
FF
FF
FF
FF
FF
FF
FF
FF
FF
FF
FF
ENDCHAR
STARTCHAR 179
ENCODING 179
SWIDTH 256 0
DWIDTH 8 0
BBX 2 32 3 -9
BITMAP
C0
C0
C0
C0
C0
C0
C0
C0
C0
C0
C0
C0
C0
C0
C0
C0
C0
C0
C0
C0
C0
C0
C0
C0
C0
C0
C0
C0
C0
C0
C0
C0
ENDCHAR
STARTCHAR 180
ENCODING 180
SWIDTH 256 0
DWIDTH 8 0
BBX 5 32 0 -9
BITMAP
18
18
18
18
18
18
18
18
18
18
18
18
18
18
18
F8
F8
18
18
18
18
18
18
18
18
18
18
18
18
18
18
18
ENDCHAR
STARTCHAR 181
ENCODING 181
SWIDTH 256 0
DWIDTH 8 0
BBX 5 32 0 -9
BITMAP
18
18
18
18
18
18
18
18
18
18
18
18
18
F8
F8
18
18
F8
F8
18
18
18
18
18
18
18
18
18
18
18
18
18
ENDCHAR
STARTCHAR 182
ENCODING 182
SWIDTH 256 0
DWIDTH 8 0
BBX 8 32 0 -9
BITMAP
3C
3C
3C
3C
3C
3C
3C
3C
3C
3C
3C
3C
3C
3C
3C
FC
FC
3C
3C
3C
3C
3C
3C
3C
3C
3C
3C
3C
3C
3C
3C
3C
ENDCHAR
STARTCHAR 183
ENCODING 183
SWIDTH 256 0
DWIDTH 8 0
BBX 6 18 0 -9
BITMAP
FC
FC
FC
3C
3C
3C
3C
3C
3C
3C
3C
3C
3C
3C
3C
3C
3C
3C
ENDCHAR
STARTCHAR 184
ENCODING 184
SWIDTH 256 0
DWIDTH 8 0
BBX 5 20 0 -9
BITMAP
F8
F8
18
18
F8
F8
F8
18
18
18
18
18
18
18
18
18
18
18
18
18
ENDCHAR
STARTCHAR 185
ENCODING 185
SWIDTH 256 0
DWIDTH 8 0
BBX 8 32 0 -9
BITMAP
3C
3C
3C
3C
3C
3C
3C
3C
3C
3C
3C
3C
3C
FC
FC
0C
0C
FC
FC
3C
3C
3C
3C
3C
3C
3C
3C
3C
3C
3C
3C
3C
ENDCHAR
STARTCHAR 186
ENCODING 186
SWIDTH 256 0
DWIDTH 8 0
BBX 4 32 2 -9
BITMAP
F0
F0
F0
F0
F0
F0
F0
F0
F0
F0
F0
F0
F0
F0
F0
F0
F0
F0
F0
F0
F0
F0
F0
F0
F0
F0
F0
F0
F0
F0
F0
F0
ENDCHAR
STARTCHAR 187
ENCODING 187
SWIDTH 256 0
DWIDTH 8 0
BBX 6 20 0 -9
BITMAP
FC
FC
0C
0C
EC
FC
FC
3C
3C
3C
3C
3C
3C
3C
3C
3C
3C
3C
3C
3C
ENDCHAR
STARTCHAR 188
ENCODING 188
SWIDTH 256 0
DWIDTH 8 0
BBX 6 20 0 4
BITMAP
3C
3C
3C
3C
3C
3C
3C
3C
3C
3C
3C
3C
3C
FC
FC
EC
0C
0C
FC
FC
ENDCHAR
STARTCHAR 189
ENCODING 189
SWIDTH 256 0
DWIDTH 8 0
BBX 6 18 0 6
BITMAP
3C
3C
3C
3C
3C
3C
3C
3C
3C
3C
3C
3C
3C
3C
3C
FC
FC
FC
ENDCHAR
STARTCHAR 190
ENCODING 190
SWIDTH 256 0
DWIDTH 8 0
BBX 5 20 0 4
BITMAP
18
18
18
18
18
18
18
18
18
18
18
18
18
F8
F8
F8
18
18
F8
F8
ENDCHAR
STARTCHAR 191
ENCODING 191
SWIDTH 256 0
DWIDTH 8 0
BBX 5 18 0 -9
BITMAP
F8
F8
F8
18
18
18
18
18
18
18
18
18
18
18
18
18
18
18
ENDCHAR
STARTCHAR 192
ENCODING 192
SWIDTH 256 0
DWIDTH 8 0
BBX 5 18 3 6
BITMAP
C0
C0
C0
C0
C0
C0
C0
C0
C0
C0
C0
C0
C0
C0
C0
F8
F8
F8
ENDCHAR
STARTCHAR 193
ENCODING 193
SWIDTH 256 0
DWIDTH 8 0
BBX 8 18 0 6
BITMAP
18
18
18
18
18
18
18
18
18
18
18
18
18
18
18
FF
FF
FF
ENDCHAR
STARTCHAR 194
ENCODING 194
SWIDTH 256 0
DWIDTH 8 0
BBX 8 18 0 -9
BITMAP
FF
FF
FF
18
18
18
18
18
18
18
18
18
18
18
18
18
18
18
ENDCHAR
STARTCHAR 195
ENCODING 195
SWIDTH 256 0
DWIDTH 8 0
BBX 5 32 3 -9
BITMAP
C0
C0
C0
C0
C0
C0
C0
C0
C0
C0
C0
C0
C0
C0
C0
F8
F8
C0
C0
C0
C0
C0
C0
C0
C0
C0
C0
C0
C0
C0
C0
C0
ENDCHAR
STARTCHAR 196
ENCODING 196
SWIDTH 256 0
DWIDTH 8 0
BBX 8 3 0 6
BITMAP
FF
FF
FF
ENDCHAR
STARTCHAR 197
ENCODING 197
SWIDTH 256 0
DWIDTH 8 0
BBX 8 32 0 -9
BITMAP
18
18
18
18
18
18
18
18
18
18
18
18
18
18
18
FF
FF
18
18
18
18
18
18
18
18
18
18
18
18
18
18
18
ENDCHAR
STARTCHAR 198
ENCODING 198
SWIDTH 256 0
DWIDTH 8 0
BBX 5 32 3 -9
BITMAP
C0
C0
C0
C0
C0
C0
C0
C0
C0
C0
C0
C0
C0
F8
F8
C0
C0
F8
F8
C0
C0
C0
C0
C0
C0
C0
C0
C0
C0
C0
C0
C0
ENDCHAR
STARTCHAR 199
ENCODING 199
SWIDTH 256 0
DWIDTH 8 0
BBX 8 32 0 -9
BITMAP
3C
3C
3C
3C
3C
3C
3C
3C
3C
3C
3C
3C
3C
3C
3C
3F
3F
3C
3C
3C
3C
3C
3C
3C
3C
3C
3C
3C
3C
3C
3C
3C
ENDCHAR
STARTCHAR 200
ENCODING 200
SWIDTH 256 0
DWIDTH 8 0
BBX 6 20 2 4
BITMAP
F0
F0
F0
F0
F0
F0
F0
F0
F0
F0
F0
F0
F0
FC
FC
DC
C0
C0
FC
FC
ENDCHAR
STARTCHAR 201
ENCODING 201
SWIDTH 256 0
DWIDTH 8 0
BBX 6 20 2 -9
BITMAP
FC
FC
C0
C0
DC
FC
FC
F0
F0
F0
F0
F0
F0
F0
F0
F0
F0
F0
F0
F0
ENDCHAR
STARTCHAR 202
ENCODING 202
SWIDTH 256 0
DWIDTH 8 0
BBX 8 20 0 4
BITMAP
3C
3C
3C
3C
3C
3C
3C
3C
3C
3C
3C
3C
3C
FF
FF
E7
00
00
FF
FF
ENDCHAR
STARTCHAR 203
ENCODING 203
SWIDTH 256 0
DWIDTH 8 0
BBX 8 20 0 -9
BITMAP
FF
FF
00
00
E7
FF
FF
3C
3C
3C
3C
3C
3C
3C
3C
3C
3C
3C
3C
3C
ENDCHAR
STARTCHAR 204
ENCODING 204
SWIDTH 256 0
DWIDTH 8 0
BBX 8 32 0 -9
BITMAP
3C
3C
3C
3C
3C
3C
3C
3C
3C
3C
3C
3C
3C
3F
3F
30
30
3F
3F
3C
3C
3C
3C
3C
3C
3C
3C
3C
3C
3C
3C
3C
ENDCHAR
STARTCHAR 205
ENCODING 205
SWIDTH 256 0
DWIDTH 8 0
BBX 8 7 0 4
BITMAP
FF
FF
FF
00
FF
FF
FF
ENDCHAR
STARTCHAR 206
ENCODING 206
SWIDTH 256 0
DWIDTH 8 0
BBX 8 32 0 -9
BITMAP
3C
3C
3C
3C
3C
3C
3C
3C
3C
3C
3C
3C
3C
FF
FF
00
00
FF
FF
3C
3C
3C
3C
3C
3C
3C
3C
3C
3C
3C
3C
3C
ENDCHAR
STARTCHAR 207
ENCODING 207
SWIDTH 256 0
DWIDTH 8 0
BBX 8 20 0 4
BITMAP
18
18
18
18
18
18
18
18
18
18
18
18
18
FF
FF
FF
00
00
FF
FF
ENDCHAR
STARTCHAR 208
ENCODING 208
SWIDTH 256 0
DWIDTH 8 0
BBX 8 18 0 6
BITMAP
3C
3C
3C
3C
3C
3C
3C
3C
3C
3C
3C
3C
3C
3C
3C
FF
FF
FF
ENDCHAR
STARTCHAR 209
ENCODING 209
SWIDTH 256 0
DWIDTH 8 0
BBX 8 20 0 -9
BITMAP
FF
FF
00
00
FF
FF
FF
18
18
18
18
18
18
18
18
18
18
18
18
18
ENDCHAR
STARTCHAR 210
ENCODING 210
SWIDTH 256 0
DWIDTH 8 0
BBX 8 18 0 -9
BITMAP
FF
FF
FF
3C
3C
3C
3C
3C
3C
3C
3C
3C
3C
3C
3C
3C
3C
3C
ENDCHAR
STARTCHAR 211
ENCODING 211
SWIDTH 256 0
DWIDTH 8 0
BBX 6 18 2 6
BITMAP
F0
F0
F0
F0
F0
F0
F0
F0
F0
F0
F0
F0
F0
F0
F0
FC
FC
FC
ENDCHAR
STARTCHAR 212
ENCODING 212
SWIDTH 256 0
DWIDTH 8 0
BBX 5 20 3 4
BITMAP
C0
C0
C0
C0
C0
C0
C0
C0
C0
C0
C0
C0
C0
F8
F8
F8
C0
C0
F8
F8
ENDCHAR
STARTCHAR 213
ENCODING 213
SWIDTH 256 0
DWIDTH 8 0
BBX 5 20 3 -9
BITMAP
F8
F8
C0
C0
F8
F8
F8
C0
C0
C0
C0
C0
C0
C0
C0
C0
C0
C0
C0
C0
ENDCHAR
STARTCHAR 214
ENCODING 214
SWIDTH 256 0
DWIDTH 8 0
BBX 6 18 2 -9
BITMAP
FC
FC
FC
F0
F0
F0
F0
F0
F0
F0
F0
F0
F0
F0
F0
F0
F0
F0
ENDCHAR
STARTCHAR 215
ENCODING 215
SWIDTH 256 0
DWIDTH 8 0
BBX 8 32 0 -9
BITMAP
3C
3C
3C
3C
3C
3C
3C
3C
3C
3C
3C
3C
3C
3C
3C
FF
FF
3C
3C
3C
3C
3C
3C
3C
3C
3C
3C
3C
3C
3C
3C
3C
ENDCHAR
STARTCHAR 216
ENCODING 216
SWIDTH 256 0
DWIDTH 8 0
BBX 8 32 0 -9
BITMAP
18
18
18
18
18
18
18
18
18
18
18
18
18
FF
FF
18
18
FF
FF
18
18
18
18
18
18
18
18
18
18
18
18
18
ENDCHAR
STARTCHAR 217
ENCODING 217
SWIDTH 256 0
DWIDTH 8 0
BBX 5 18 0 6
BITMAP
18
18
18
18
18
18
18
18
18
18
18
18
18
18
18
F8
F8
F8
ENDCHAR
STARTCHAR 218
ENCODING 218
SWIDTH 256 0
DWIDTH 8 0
BBX 5 18 3 -9
BITMAP
F8
F8
F8
C0
C0
C0
C0
C0
C0
C0
C0
C0
C0
C0
C0
C0
C0
C0
ENDCHAR
STARTCHAR 219
ENCODING 219
SWIDTH 256 0
DWIDTH 8 0
BBX 8 32 0 -9
BITMAP
FF
FF
FF
FF
FF
FF
FF
FF
FF
FF
FF
FF
FF
FF
FF
FF
FF
FF
FF
FF
FF
FF
FF
FF
FF
FF
FF
FF
FF
FF
FF
FF
ENDCHAR
STARTCHAR 220
ENCODING 220
SWIDTH 256 0
DWIDTH 8 0
BBX 8 16 0 -9
BITMAP
FF
FF
FF
FF
FF
FF
FF
FF
FF
FF
FF
FF
FF
FF
FF
FF
ENDCHAR
STARTCHAR 221
ENCODING 221
SWIDTH 256 0
DWIDTH 8 0
BBX 5 32 0 -9
BITMAP
F8
F8
F8
F8
F8
F8
F8
F8
F8
F8
F8
F8
F8
F8
F8
F8
F8
F8
F8
F8
F8
F8
F8
F8
F8
F8
F8
F8
F8
F8
F8
F8
ENDCHAR
STARTCHAR 222
ENCODING 222
SWIDTH 256 0
DWIDTH 8 0
BBX 4 32 5 -9
BITMAP
F0
F0
F0
F0
F0
F0
F0
F0
F0
F0
F0
F0
F0
F0
F0
F0
F0
F0
F0
F0
F0
F0
F0
F0
F0
F0
F0
F0
F0
F0
F0
F0
ENDCHAR
STARTCHAR 223
ENCODING 223
SWIDTH 256 0
DWIDTH 8 0
BBX 8 16 0 7
BITMAP
FF
FF
FF
FF
FF
FF
FF
FF
FF
FF
FF
FF
FF
FF
FF
FF
ENDCHAR
STARTCHAR 224
ENCODING 224
SWIDTH 256 0
DWIDTH 8 0
BBX 8 14 0 0
BITMAP
FF
FE
DC
DC
D8
D8
D8
D8
D8
D8
DC
DC
FE
FF
ENDCHAR
STARTCHAR 225
ENCODING 225
SWIDTH 256 0
DWIDTH 8 0
BBX 7 21 0 0
BITMAP
F8
FC
CC
C6
C6
C6
C6
DE
FE
FC
DE
C6
C6
C6
C6
C6
C6
C6
C6
DE
DE
ENDCHAR
STARTCHAR 226
ENCODING 226
SWIDTH 256 0
DWIDTH 8 0
BBX 7 21 0 0
BITMAP
FE
FE
C6
C6
C6
C6
C6
C6
C0
C0
C0
C0
C0
C0
C0
C0
C0
C0
C0
C0
C0
ENDCHAR
STARTCHAR 227
ENCODING 227
SWIDTH 256 0
DWIDTH 8 0
BBX 7 18 0 0
BITMAP
FE
FE
FE
6C
6C
6C
6C
6C
6C
6C
6C
6C
6C
6C
6C
6C
6C
6C
ENDCHAR
STARTCHAR 228
ENCODING 228
SWIDTH 256 0
DWIDTH 8 0
BBX 7 20 0 -1
BITMAP
FE
FE
C6
C6
C2
C0
E0
60
70
30
70
E0
E0
C0
C0
C2
C6
C6
FE
FE
ENDCHAR
STARTCHAR 229
ENCODING 229
SWIDTH 256 0
DWIDTH 8 0
BBX 8 18 0 0
BITMAP
FF
FF
FF
CC
CC
CC
CC
CC
CC
CC
CC
CC
CC
CC
CC
FC
FC
F8
ENDCHAR
STARTCHAR 230
ENCODING 230
SWIDTH 256 0
DWIDTH 8 0
BBX 7 19 0 -2
BITMAP
66
66
66
66
66
66
66
66
66
66
66
66
7E
7E
7C
60
60
E0
C0
ENDCHAR
STARTCHAR 231
ENCODING 231
SWIDTH 256 0
DWIDTH 8 0
BBX 8 18 0 0
BITMAP
77
7F
FD
D8
98
98
18
18
18
18
18
18
18
18
18
18
18
18
ENDCHAR
STARTCHAR 232
ENCODING 232
SWIDTH 256 0
DWIDTH 8 0
BBX 6 20 1 0
BITMAP
FC
FC
30
30
78
FC
CC
CC
CC
CC
CC
CC
CC
CC
FC
78
30
30
FC
FC
ENDCHAR
STARTCHAR 233
ENCODING 233
SWIDTH 256 0
DWIDTH 8 0
BBX 6 20 1 0
BITMAP
78
FC
CC
CC
CC
CC
CC
CC
CC
FC
FC
CC
CC
CC
CC
CC
CC
CC
FC
78
ENDCHAR
STARTCHAR 234
ENCODING 234
SWIDTH 256 0
DWIDTH 8 0
BBX 7 21 0 0
BITMAP
38
7C
6C
EE
C6
C6
C6
C6
C6
C6
EE
6C
6C
6C
6C
6C
6C
6C
6C
EE
EE
ENDCHAR
STARTCHAR 235
ENCODING 235
SWIDTH 256 0
DWIDTH 8 0
BBX 6 21 1 0
BITMAP
3C
7C
C0
E0
70
38
18
78
FC
FC
CC
CC
CC
CC
CC
CC
CC
CC
CC
FC
FC
ENDCHAR
STARTCHAR 236
ENCODING 236
SWIDTH 256 0
DWIDTH 8 0
BBX 7 14 1 2
BITMAP
FE
FE
FE
D6
D6
D6
D6
D6
D6
D6
D6
FE
FE
FE
ENDCHAR
STARTCHAR 237
ENCODING 237
SWIDTH 256 0
DWIDTH 8 0
BBX 8 21 0 -1
BITMAP
03
06
0C
7E
7E
FF
DB
DB
DB
DB
DB
DB
DB
DB
DB
FF
7E
7E
30
60
C0
ENDCHAR
STARTCHAR 238
ENCODING 238
SWIDTH 256 0
DWIDTH 8 0
BBX 6 22 1 0
BITMAP
3C
7C
60
C0
C0
C0
C0
C0
C0
C0
FC
FC
C0
C0
C0
C0
C0
C0
C0
60
7C
3C
ENDCHAR
STARTCHAR 239
ENCODING 239
SWIDTH 256 0
DWIDTH 8 0
BBX 7 20 0 0
BITMAP
FE
FE
C6
C6
C6
C6
C6
C6
C6
C6
C6
C6
C6
C6
C6
C6
C6
C6
C6
C6
ENDCHAR
STARTCHAR 240
ENCODING 240
SWIDTH 256 0
DWIDTH 8 0
BBX 8 11 0 3
BITMAP
FF
FF
00
00
FF
FF
FF
00
00
FF
FF
ENDCHAR
STARTCHAR 241
ENCODING 241
SWIDTH 256 0
DWIDTH 8 0
BBX 7 15 1 0
BITMAP
10
10
10
7C
FE
7C
10
10
10
00
00
00
00
FE
FE
ENDCHAR
STARTCHAR 242
ENCODING 242
SWIDTH 256 0
DWIDTH 8 0
BBX 5 19 1 0
BITMAP
C0
C0
60
30
30
18
18
18
18
30
60
60
C0
80
00
00
00
F8
F8
ENDCHAR
STARTCHAR 243
ENCODING 243
SWIDTH 256 0
DWIDTH 8 0
BBX 5 19 1 0
BITMAP
18
18
30
60
60
C0
C0
C0
C0
60
30
30
18
08
00
00
00
F8
F8
ENDCHAR
STARTCHAR 244
ENCODING 244
SWIDTH 256 0
DWIDTH 8 0
BBX 5 31 3 -9
BITMAP
F8
F8
D8
D8
D8
D8
D8
C8
C0
C0
C0
C0
C0
C0
C0
C0
C0
C0
C0
C0
C0
C0
C0
C0
C0
C0
C0
C0
C0
C0
C0
ENDCHAR
STARTCHAR 245
ENCODING 245
SWIDTH 256 0
DWIDTH 8 0
BBX 5 30 0 -6
BITMAP
18
18
18
18
18
18
18
18
18
18
18
18
18
18
18
18
18
18
18
18
18
18
98
D8
D8
D8
D8
D8
F8
F8
ENDCHAR
STARTCHAR 246
ENCODING 246
SWIDTH 256 0
DWIDTH 8 0
BBX 6 13 1 4
BITMAP
30
30
30
00
00
FC
FC
FC
00
00
30
30
30
ENDCHAR
STARTCHAR 247
ENCODING 247
SWIDTH 256 0
DWIDTH 8 0
BBX 8 10 0 5
BITMAP
F1
FB
FF
9F
8E
71
F1
FB
DF
9F
ENDCHAR
STARTCHAR 248
ENCODING 248
SWIDTH 256 0
DWIDTH 8 0
BBX 6 9 1 13
BITMAP
FC
FC
FC
CC
CC
CC
FC
FC
FC
ENDCHAR
STARTCHAR 249
ENCODING 249
SWIDTH 256 0
DWIDTH 8 0
BBX 2 5 3 6
BITMAP
C0
C0
C0
C0
C0
ENDCHAR
STARTCHAR 250
ENCODING 250
SWIDTH 256 0
DWIDTH 8 0
BBX 2 4 3 6
BITMAP
C0
C0
C0
C0
ENDCHAR
STARTCHAR 251
ENCODING 251
SWIDTH 256 0
DWIDTH 8 0
BBX 8 23 0 0
BITMAP
0F
0F
0C
0C
0C
0C
0C
0C
0C
0C
0C
FC
FC
3C
3C
3C
3C
3C
3C
3C
3C
3C
1C
ENDCHAR
STARTCHAR 252
ENCODING 252
SWIDTH 256 0
DWIDTH 8 0
BBX 6 13 0 9
BITMAP
FC
FC
BC
3C
3C
3C
3C
3C
3C
3C
3C
3C
3C
ENDCHAR
STARTCHAR 253
ENCODING 253
SWIDTH 256 0
DWIDTH 8 0
BBX 5 12 0 10
BITMAP
F8
F8
D8
D8
98
30
70
68
D8
D8
F8
F8
ENDCHAR
STARTCHAR 254
ENCODING 254
SWIDTH 256 0
DWIDTH 8 0
BBX 6 15 1 1
BITMAP
FC
FC
FC
FC
FC
FC
FC
FC
FC
FC
FC
FC
FC
FC
FC
ENDCHAR
STARTCHAR 255
ENCODING 255
SWIDTH 256 0
DWIDTH 8 0
BBX 0 0 0 0
BITMAP
ENDCHAR
ENDFONT
